<svg xmlns="http://www.w3.org/2000/svg" height="24" viewBox="0 -960 960 960" width="24">
    <!-- Original path with fill color -->
    <path d="M200-120q-33 0-56.5-23.5T120-200v-560q0-33 23.5-56.5T200-840h560q33 0 56.5 23.5T840-760v560q0 33-23.5 56.5T760-120H200Zm200-80v-240H200v240h200Zm80 0h280v-240H480v240ZM200-520h560v-240H200v240Z" fill="#3A3E66"/>

    <!-- Duplicate path for the stroke effect with thicker stroke -->
    <path d="M200-120q-33 0-56.5-23.5T120-200v-560q0-33 23.5-56.5T200-840h560q33 0 56.5 23.5T840-760v560q0 33-23.5 56.5T760-120H200Zm200-80v-240H200v240h200Zm80 0h280v-240H480v240ZM200-520h560v-240H200v240Z" fill="none" stroke="#3A3E66" stroke-width="20"/> <!-- Adjust the stroke width value -->
</svg>
